<?xml version="1.0" ?><svg viewBox="0 0 32 32" xmlns="http://www.w3.org/2000/svg"><defs><style>.cls-1{fill:#9dcbf4;}.cls-2{fill:#389ad6;}.cls-3{fill:#2a5080;}</style></defs><title/><g data-name="coffee tree" id="coffee_tree"><path class="cls-1" d="M29,5c-.58,7.3-4.34,10.7-12,11h-.75a13.11,13.11,0,0,1,3.15-7.14A11,11,0,0,1,23.76,6,16.43,16.43,0,0,1,29,5Z"/><path class="cls-2" d="M28.08,5.08c-1.09,5.79-4.73,8.57-11.43,8.86A17.65,17.65,0,0,0,16.22,16H17c7.64-.26,11.4-3.66,12-11C28.65,5,28.37,5.06,28.08,5.08Z"/><path class="cls-1" d="M3.34,7.63c1.32,6.87,5.37,10,12.25,10.29,0,0,.24-4.41-1.71-6.91C11.62,8.11,6.83,7.25,3.34,7.63Z"/><path class="cls-2" d="M3.8,7.59l-.46,0c1.32,6.87,5.37,10,12.25,10.29A15.3,15.3,0,0,0,15.53,16C9.35,15.76,5.47,13.14,3.8,7.59Z"/><path class="cls-1" d="M22,19a3,3,0,0,1-5.66,1.4A4,4,0,0,1,20,18a4.06,4.06,0,0,1,2,.51A2.63,2.63,0,0,1,22,19Z"/><path class="cls-2" d="M22,18.51a4.66,4.66,0,0,0-.83-.34,3,3,0,0,1-2.87,2.18,3,3,0,0,1-1.63-.49,3.5,3.5,0,0,0-.29.54A3,3,0,0,0,22,19,2.63,2.63,0,0,0,22,18.51Z"/><path class="cls-3" d="M29.7,2.29A1,1,0,0,0,29,2h-.17c-4.58,0-8.1,1.3-10.45,3.85C16.19,8.22,15.05,11.61,15,15.94V17C9.85,17,4.52,12.92,4,6c4.24.26,7.44,2.16,9.07,5.42a1,1,0,0,0,1.78-.9C12.78,6.33,8.56,4,3,4A1,1,0,0,0,2,5c0,7.13,4.37,11.92,9.44,13.46A3,3,0,0,0,15,22.82V26a15.48,15.48,0,0,0-6.5,2.09,1,1,0,0,0,1,1.74A13.43,13.43,0,0,1,15,28.05V29a1,1,0,0,0,2,0V22.44A3.91,3.91,0,0,0,19,23a4,4,0,0,0,2.89-6.76C27.39,14.62,30,10.31,30,3A1,1,0,0,0,29.7,2.29ZM14,21a1,1,0,1,1,1-1A1,1,0,0,1,14,21Zm5,0a2,2,0,1,1,2-2A2,2,0,0,1,19,21Zm-2-6c.19-3.34,1.13-6,2.81-7.77,1.82-2,4.56-3,8.14-3.19C27.71,11.37,24.38,14.7,17,15Z"/><path class="cls-3" d="M20,13a.91.91,0,0,1-.39-.08,1,1,0,0,1-.53-1.31,9.88,9.88,0,0,1,5.55-5.54,1,1,0,0,1,.75,1.86,7.78,7.78,0,0,0-4.46,4.46A1,1,0,0,1,20,13Z"/><path class="cls-3" d="M23.5,28.13a16.33,16.33,0,0,0-4.29-1.74,1,1,0,1,0-.47,1.94,14.36,14.36,0,0,1,3.76,1.54,1,1,0,0,0,1-1.74Z"/></g></svg>