<?xml version="1.0" encoding="UTF-8"?>
<svg xmlns="http://www.w3.org/2000/svg" xmlns:xlink="http://www.w3.org/1999/xlink" width="32px" height="32px" viewBox="0 0 32 32" version="1.1">
<defs>
<filter id="alpha" filterUnits="objectBoundingBox" x="0%" y="0%" width="100%" height="100%">
  <feColorMatrix type="matrix" in="SourceGraphic" values="0 0 0 0 1 0 0 0 0 1 0 0 0 0 1 0 0 0 1 0"/>
</filter>
<mask id="mask0">
  <g filter="url(#alpha)">
<rect x="0" y="0" width="32" height="32" style="fill:rgb(0%,0%,0%);fill-opacity:0.4;stroke:none;"/>
  </g>
</mask>
<clipPath id="clip1">
  <rect x="0" y="0" width="32" height="32"/>
</clipPath>
<g id="surface5" clip-path="url(#clip1)">
<path style=" stroke:none;fill-rule:nonzero;fill:rgb(90.196078%,90.196078%,90.196078%);fill-opacity:1;" d="M 16.75 8.25 C 16.75 7.835938 16.414062 7.5 16 7.5 C 15.585938 7.5 15.25 7.835938 15.25 8.25 L 2.300781 24.273438 C 5.105469 28.902344 10.191406 32 16 32 C 22.261719 32 27.679688 28.402344 30.308594 23.160156 Z M 16.75 8.25 "/>
</g>
<mask id="mask1">
  <g filter="url(#alpha)">
<rect x="0" y="0" width="32" height="32" style="fill:rgb(0%,0%,0%);fill-opacity:0.301961;stroke:none;"/>
  </g>
</mask>
<clipPath id="clip2">
  <rect x="0" y="0" width="32" height="32"/>
</clipPath>
<g id="surface8" clip-path="url(#clip2)">
<path style=" stroke:none;fill-rule:nonzero;fill:rgb(96.078431%,96.078431%,96.078431%);fill-opacity:1;" d="M 16 7 C 16 7.25 15 8.25 14.75 8.25 C 15 8.25 16 9.25 16 9.5 C 16 9.25 17 8.25 17.25 8.25 C 17 8.25 16 7.25 16 7 Z M 16 7 "/>
</g>
<mask id="mask2">
  <g filter="url(#alpha)">
<rect x="0" y="0" width="32" height="32" style="fill:rgb(0%,0%,0%);fill-opacity:0.301961;stroke:none;"/>
  </g>
</mask>
<clipPath id="clip3">
  <rect x="0" y="0" width="32" height="32"/>
</clipPath>
<g id="surface11" clip-path="url(#clip3)">
<path style=" stroke:none;fill-rule:nonzero;fill:rgb(96.078431%,96.078431%,96.078431%);fill-opacity:1;" d="M 15.117188 7.367188 C 15.292969 7.542969 15.292969 8.957031 15.117188 9.132812 C 15.292969 8.957031 16.707031 8.957031 16.882812 9.132812 C 16.707031 8.957031 16.707031 7.542969 16.882812 7.367188 C 16.707031 7.542969 15.292969 7.542969 15.117188 7.367188 Z M 15.117188 7.367188 "/>
</g>
</defs>
<g id="surface1">
<path style=" stroke:none;fill-rule:nonzero;fill:rgb(17.647059%,26.666667%,32.156863%);fill-opacity:1;" d="M 32 16 C 32 24.835938 24.835938 32 16 32 C 7.164062 32 0 24.835938 0 16 C 0 7.164062 7.164062 0 16 0 C 24.835938 0 32 7.164062 32 16 Z M 32 16 "/>
<path style=" stroke:none;fill-rule:nonzero;fill:rgb(88.235294%,41.960784%,35.294118%);fill-opacity:1;" d="M 11.5 22.5 C 11.5 23.324219 10.824219 24 10 24 L 4 24 C 3.175781 24 2.5 23.324219 2.5 22.5 L 2.5 15.5 C 2.5 14.675781 3.175781 14 4 14 L 10 14 C 10.824219 14 11.5 14.675781 11.5 15.5 Z M 11.5 22.5 "/>
<path style=" stroke:none;fill-rule:nonzero;fill:rgb(80%,38.039216%,32.156863%);fill-opacity:1;" d="M 10 14 L 4 14 C 3.175781 14 2.5 14.675781 2.5 15.5 L 2.5 16.5 C 2.5 15.675781 3.175781 15 4 15 L 10 15 C 10.824219 15 11.5 15.675781 11.5 16.5 L 11.5 15.5 C 11.5 14.675781 10.824219 14 10 14 Z M 10 14 "/>
<path style=" stroke:none;fill-rule:nonzero;fill:rgb(70.196078%,70.196078%,70.196078%);fill-opacity:1;" d="M 10 25 C 10 25.824219 9.324219 26.5 8.5 26.5 L 5.5 26.5 C 4.675781 26.5 4 25.824219 4 25 L 4 18 C 4 17.175781 4.675781 16.5 5.5 16.5 L 8.5 16.5 C 9.324219 16.5 10 17.175781 10 18 Z M 10 25 "/>
<path style=" stroke:none;fill-rule:nonzero;fill:rgb(13.72549%,20.784314%,25.098039%);fill-opacity:1;" d="M 8.5 16.5 L 5.5 16.5 C 4.675781 16.5 4 17.175781 4 18 L 4 19 C 4 18.175781 4.675781 17.5 5.5 17.5 L 8.5 17.5 C 9.324219 17.5 10 18.175781 10 19 L 10 18 C 10 17.175781 9.324219 16.5 8.5 16.5 Z M 8.5 16.5 "/>
<path style=" stroke:none;fill-rule:nonzero;fill:rgb(60%,37.647059%,18.039216%);fill-opacity:1;" d="M 4 23.25 C 4 23.523438 3.773438 23.75 3.5 23.75 L 3 23.75 C 2.726562 23.75 2.5 23.523438 2.5 23.25 L 2.5 18.25 C 2.5 17.976562 2.726562 17.75 3 17.75 L 3.5 17.75 C 3.773438 17.75 4 17.976562 4 18.25 Z M 4 23.25 "/>
<path style=" stroke:none;fill-rule:nonzero;fill:rgb(54.901961%,34.509804%,16.470588%);fill-opacity:1;" d="M 3.5 17.75 L 3 17.75 C 2.726562 17.75 2.5 17.976562 2.5 18.25 L 2.5 18.75 C 2.5 18.476562 2.726562 18.25 3 18.25 L 3.5 18.25 C 3.773438 18.25 4 18.476562 4 18.75 L 4 18.25 C 4 17.976562 3.773438 17.75 3.5 17.75 Z M 3.5 17.75 "/>
<path style=" stroke:none;fill-rule:nonzero;fill:rgb(60%,37.647059%,18.039216%);fill-opacity:1;" d="M 11.5 23.25 C 11.5 23.523438 11.273438 23.75 11 23.75 L 10.5 23.75 C 10.226562 23.75 10 23.523438 10 23.25 L 10 18.25 C 10 17.976562 10.226562 17.75 10.5 17.75 L 11 17.75 C 11.273438 17.75 11.5 17.976562 11.5 18.25 Z M 11.5 23.25 "/>
<path style=" stroke:none;fill-rule:nonzero;fill:rgb(54.901961%,34.509804%,16.470588%);fill-opacity:1;" d="M 11 17.75 L 10.5 17.75 C 10.226562 17.75 10 17.976562 10 18.25 L 10 18.75 C 10 18.476562 10.226562 18.25 10.5 18.25 L 11 18.25 C 11.273438 18.25 11.5 18.476562 11.5 18.75 L 11.5 18.25 C 11.5 17.976562 11.273438 17.75 11 17.75 Z M 11 17.75 "/>
<path style=" stroke:none;fill-rule:nonzero;fill:rgb(88.235294%,41.960784%,35.294118%);fill-opacity:1;" d="M 1.765625 23.300781 C 1.914062 23.070312 2 22.792969 2 22.5 L 2 15.5 C 2 14.675781 1.324219 14 0.5 14 L 0.128906 14 C 0.046875 14.65625 0 15.320312 0 16 C 0 18.632812 0.640625 21.113281 1.765625 23.300781 Z M 1.765625 23.300781 "/>
<path style=" stroke:none;fill-rule:nonzero;fill:rgb(80%,38.039216%,32.156863%);fill-opacity:1;" d="M 0.5 15 C 1.324219 15 2 15.675781 2 16.5 L 2 15.5 C 2 14.675781 1.324219 14 0.5 14 L 0.128906 14 C 0.0898438 14.332031 0.0546875 14.664062 0.0351562 15 Z M 0.5 15 "/>
<path style=" stroke:none;fill-rule:nonzero;fill:rgb(70.196078%,70.196078%,70.196078%);fill-opacity:1;" d="M 0.0273438 16.910156 C 0.0859375 17.964844 0.246094 18.992188 0.5 19.984375 L 0.5 18 C 0.5 17.570312 0.316406 17.1875 0.0273438 16.910156 Z M 0.0273438 16.910156 "/>
<path style=" stroke:none;fill-rule:nonzero;fill:rgb(13.72549%,20.784314%,25.098039%);fill-opacity:1;" d="M 0.0273438 16.910156 C 0.046875 17.285156 0.0859375 17.652344 0.132812 18.019531 C 0.359375 18.285156 0.5 18.625 0.5 19 L 0.5 18 C 0.5 17.570312 0.316406 17.1875 0.0273438 16.910156 Z M 0.0273438 16.910156 "/>
<path style=" stroke:none;fill-rule:nonzero;fill:rgb(60%,37.647059%,18.039216%);fill-opacity:1;" d="M 1.5 17.75 L 1 17.75 C 0.726562 17.75 0.5 17.976562 0.5 18.25 L 0.5 19.984375 C 0.820312 21.238281 1.292969 22.4375 1.894531 23.554688 C 1.960938 23.46875 2 23.363281 2 23.25 L 2 18.25 C 2 17.976562 1.773438 17.75 1.5 17.75 Z M 1.5 17.75 "/>
<path style=" stroke:none;fill-rule:nonzero;fill:rgb(54.901961%,34.509804%,16.470588%);fill-opacity:1;" d="M 1.5 17.75 L 1 17.75 C 0.726562 17.75 0.5 17.976562 0.5 18.25 L 0.5 18.75 C 0.5 18.476562 0.726562 18.25 1 18.25 L 1.5 18.25 C 1.773438 18.25 2 18.476562 2 18.75 L 2 18.25 C 2 17.976562 1.773438 17.75 1.5 17.75 Z M 1.5 17.75 "/>
<path style=" stroke:none;fill-rule:nonzero;fill:rgb(88.235294%,41.960784%,35.294118%);fill-opacity:1;" d="M 21 22.5 C 21 23.324219 20.324219 24 19.5 24 L 13.5 24 C 12.675781 24 12 23.324219 12 22.5 L 12 15.5 C 12 14.675781 12.675781 14 13.5 14 L 19.5 14 C 20.324219 14 21 14.675781 21 15.5 Z M 21 22.5 "/>
<path style=" stroke:none;fill-rule:nonzero;fill:rgb(80%,38.039216%,32.156863%);fill-opacity:1;" d="M 19.5 14 L 13.5 14 C 12.675781 14 12 14.675781 12 15.5 L 12 16.5 C 12 15.675781 12.675781 15 13.5 15 L 19.5 15 C 20.324219 15 21 15.675781 21 16.5 L 21 15.5 C 21 14.675781 20.324219 14 19.5 14 Z M 19.5 14 "/>
<path style=" stroke:none;fill-rule:nonzero;fill:rgb(70.196078%,70.196078%,70.196078%);fill-opacity:1;" d="M 19.5 25 C 19.5 25.824219 18.824219 26.5 18 26.5 L 15 26.5 C 14.175781 26.5 13.5 25.824219 13.5 25 L 13.5 18 C 13.5 17.175781 14.175781 16.5 15 16.5 L 18 16.5 C 18.824219 16.5 19.5 17.175781 19.5 18 Z M 19.5 25 "/>
<path style=" stroke:none;fill-rule:nonzero;fill:rgb(13.72549%,20.784314%,25.098039%);fill-opacity:1;" d="M 18 16.5 L 15 16.5 C 14.175781 16.5 13.5 17.175781 13.5 18 L 13.5 19 C 13.5 18.175781 14.175781 17.5 15 17.5 L 18 17.5 C 18.824219 17.5 19.5 18.175781 19.5 19 L 19.5 18 C 19.5 17.175781 18.824219 16.5 18 16.5 Z M 18 16.5 "/>
<path style=" stroke:none;fill-rule:nonzero;fill:rgb(60%,37.647059%,18.039216%);fill-opacity:1;" d="M 13.5 23.25 C 13.5 23.523438 13.273438 23.75 13 23.75 L 12.5 23.75 C 12.226562 23.75 12 23.523438 12 23.25 L 12 18.25 C 12 17.976562 12.226562 17.75 12.5 17.75 L 13 17.75 C 13.273438 17.75 13.5 17.976562 13.5 18.25 Z M 13.5 23.25 "/>
<path style=" stroke:none;fill-rule:nonzero;fill:rgb(54.901961%,34.509804%,16.470588%);fill-opacity:1;" d="M 13 17.75 L 12.5 17.75 C 12.226562 17.75 12 17.976562 12 18.25 L 12 18.75 C 12 18.476562 12.226562 18.25 12.5 18.25 L 13 18.25 C 13.273438 18.25 13.5 18.476562 13.5 18.75 L 13.5 18.25 C 13.5 17.976562 13.273438 17.75 13 17.75 Z M 13 17.75 "/>
<path style=" stroke:none;fill-rule:nonzero;fill:rgb(60%,37.647059%,18.039216%);fill-opacity:1;" d="M 21 23.25 C 21 23.523438 20.773438 23.75 20.5 23.75 L 20 23.75 C 19.726562 23.75 19.5 23.523438 19.5 23.25 L 19.5 18.25 C 19.5 17.976562 19.726562 17.75 20 17.75 L 20.5 17.75 C 20.773438 17.75 21 17.976562 21 18.25 Z M 21 23.25 "/>
<path style=" stroke:none;fill-rule:nonzero;fill:rgb(54.901961%,34.509804%,16.470588%);fill-opacity:1;" d="M 20.5 17.75 L 20 17.75 C 19.726562 17.75 19.5 17.976562 19.5 18.25 L 19.5 18.75 C 19.5 18.476562 19.726562 18.25 20 18.25 L 20.5 18.25 C 20.773438 18.25 21 18.476562 21 18.75 L 21 18.25 C 21 17.976562 20.773438 17.75 20.5 17.75 Z M 20.5 17.75 "/>
<path style=" stroke:none;fill-rule:nonzero;fill:rgb(88.235294%,41.960784%,35.294118%);fill-opacity:1;" d="M 30.5 15.5 C 30.5 14.675781 29.824219 14 29 14 L 23 14 C 22.175781 14 21.5 14.675781 21.5 15.5 L 21.5 22.5 C 21.5 23.324219 22.175781 24 23 24 L 29 24 C 29.464844 24 29.886719 23.785156 30.160156 23.445312 C 30.261719 23.257812 30.359375 23.066406 30.449219 22.875 C 30.480469 22.753906 30.5 22.628906 30.5 22.5 Z M 30.5 15.5 "/>
<path style=" stroke:none;fill-rule:nonzero;fill:rgb(80%,38.039216%,32.156863%);fill-opacity:1;" d="M 29 14 L 23 14 C 22.175781 14 21.5 14.675781 21.5 15.5 L 21.5 16.5 C 21.5 15.675781 22.175781 15 23 15 L 29 15 C 29.824219 15 30.5 15.675781 30.5 16.5 L 30.5 15.5 C 30.5 14.675781 29.824219 14 29 14 Z M 29 14 "/>
<path style=" stroke:none;fill-rule:nonzero;fill:rgb(70.196078%,70.196078%,70.196078%);fill-opacity:1;" d="M 29 25 L 29 18 C 29 17.175781 28.324219 16.5 27.5 16.5 L 24.5 16.5 C 23.675781 16.5 23 17.175781 23 18 L 23 25 C 23 25.824219 23.675781 26.5 24.5 26.5 L 27.5 26.5 C 27.765625 26.5 28.019531 26.429688 28.238281 26.304688 C 28.484375 26.011719 28.71875 25.710938 28.945312 25.402344 C 28.980469 25.273438 29 25.140625 29 25 Z M 29 25 "/>
<path style=" stroke:none;fill-rule:nonzero;fill:rgb(13.72549%,20.784314%,25.098039%);fill-opacity:1;" d="M 27.5 16.5 L 24.5 16.5 C 23.675781 16.5 23 17.175781 23 18 L 23 19 C 23 18.175781 23.675781 17.5 24.5 17.5 L 27.5 17.5 C 28.324219 17.5 29 18.175781 29 19 L 29 18 C 29 17.175781 28.324219 16.5 27.5 16.5 Z M 27.5 16.5 "/>
<path style=" stroke:none;fill-rule:nonzero;fill:rgb(60%,37.647059%,18.039216%);fill-opacity:1;" d="M 23 23.25 C 23 23.523438 22.773438 23.75 22.5 23.75 L 22 23.75 C 21.726562 23.75 21.5 23.523438 21.5 23.25 L 21.5 18.25 C 21.5 17.976562 21.726562 17.75 22 17.75 L 22.5 17.75 C 22.773438 17.75 23 17.976562 23 18.25 Z M 23 23.25 "/>
<path style=" stroke:none;fill-rule:nonzero;fill:rgb(54.901961%,34.509804%,16.470588%);fill-opacity:1;" d="M 22.5 17.75 L 22 17.75 C 21.726562 17.75 21.5 17.976562 21.5 18.25 L 21.5 18.75 C 21.5 18.476562 21.726562 18.25 22 18.25 L 22.5 18.25 C 22.773438 18.25 23 18.476562 23 18.75 L 23 18.25 C 23 17.976562 22.773438 17.75 22.5 17.75 Z M 22.5 17.75 "/>
<path style=" stroke:none;fill-rule:nonzero;fill:rgb(60%,37.647059%,18.039216%);fill-opacity:1;" d="M 30.5 18.25 C 30.5 17.976562 30.273438 17.75 30 17.75 L 29.5 17.75 C 29.226562 17.75 29 17.976562 29 18.25 L 29 23.25 C 29 23.523438 29.226562 23.75 29.5 23.75 L 29.996094 23.75 C 30.175781 23.429688 30.34375 23.097656 30.5 22.765625 Z M 30.5 18.25 "/>
<path style=" stroke:none;fill-rule:nonzero;fill:rgb(54.901961%,34.509804%,16.470588%);fill-opacity:1;" d="M 30 17.75 L 29.5 17.75 C 29.226562 17.75 29 17.976562 29 18.25 L 29 18.75 C 29 18.476562 29.226562 18.25 29.5 18.25 L 30 18.25 C 30.273438 18.25 30.5 18.476562 30.5 18.75 L 30.5 18.25 C 30.5 17.976562 30.273438 17.75 30 17.75 Z M 30 17.75 "/>
<path style=" stroke:none;fill-rule:nonzero;fill:rgb(88.235294%,41.960784%,35.294118%);fill-opacity:1;" d="M 31 15.5 L 31 21.574219 C 31.644531 19.839844 32 17.960938 32 16 C 32 15.367188 31.960938 14.746094 31.886719 14.132812 C 31.367188 14.367188 31 14.894531 31 15.5 Z M 31 15.5 "/>
<path style=" stroke:none;fill-rule:nonzero;fill:rgb(80%,38.039216%,32.156863%);fill-opacity:1;" d="M 31.886719 14.132812 C 31.367188 14.367188 31 14.894531 31 15.5 L 31 16.5 C 31 15.859375 31.40625 15.3125 31.972656 15.097656 C 31.953125 14.773438 31.925781 14.453125 31.886719 14.132812 Z M 31.886719 14.132812 "/>
<path style=" stroke:none;fill-rule:nonzero;fill:rgb(60%,37.647059%,18.039216%);fill-opacity:1;" d="M 31.902344 17.75 L 31.5 17.75 C 31.226562 17.75 31 17.976562 31 18.25 L 31 21.574219 C 31.449219 20.363281 31.757812 19.082031 31.902344 17.75 Z M 31.902344 17.75 "/>
<path style=" stroke:none;fill-rule:nonzero;fill:rgb(54.901961%,34.509804%,16.470588%);fill-opacity:1;" d="M 31.5 17.75 C 31.226562 17.75 31 17.976562 31 18.25 L 31 18.75 C 31 18.476562 31.226562 18.25 31.5 18.25 L 31.839844 18.25 C 31.863281 18.085938 31.882812 17.917969 31.902344 17.75 Z M 31.5 17.75 "/>
<path style=" stroke:none;fill-rule:nonzero;fill:rgb(88.235294%,41.960784%,35.294118%);fill-opacity:1;" d="M 5 19.5 L 0.390625 19.5 C 1.222656 23.238281 3.363281 26.484375 6.308594 28.730469 C 6.429688 28.511719 6.5 28.265625 6.5 28 L 6.5 21 C 6.5 20.175781 5.824219 19.5 5 19.5 Z M 5 19.5 "/>
<path style=" stroke:none;fill-rule:nonzero;fill:rgb(80%,38.039216%,32.156863%);fill-opacity:1;" d="M 5 19.5 L 0.390625 19.5 C 0.464844 19.835938 0.550781 20.171875 0.644531 20.5 L 5 20.5 C 5.824219 20.5 6.5 21.175781 6.5 22 L 6.5 21 C 6.5 20.175781 5.824219 19.5 5 19.5 Z M 5 19.5 "/>
<path style=" stroke:none;fill-rule:nonzero;fill:rgb(70.196078%,70.196078%,70.196078%);fill-opacity:1;" d="M 3.5 22 L 1.167969 22 C 2.035156 24.140625 3.351562 26.050781 5 27.613281 L 5 23.5 C 5 22.675781 4.324219 22 3.5 22 Z M 3.5 22 "/>
<path style=" stroke:none;fill-rule:nonzero;fill:rgb(13.72549%,20.784314%,25.098039%);fill-opacity:1;" d="M 3.5 22 L 1.167969 22 C 1.304688 22.339844 1.449219 22.671875 1.609375 23 L 3.5 23 C 4.324219 23 5 23.675781 5 24.5 L 5 23.5 C 5 22.675781 4.324219 22 3.5 22 Z M 3.5 22 "/>
<path style=" stroke:none;fill-rule:nonzero;fill:rgb(60%,37.647059%,18.039216%);fill-opacity:1;" d="M 6 23.25 L 5.5 23.25 C 5.226562 23.25 5 23.476562 5 23.75 L 5 27.613281 C 5.46875 28.058594 5.964844 28.476562 6.484375 28.863281 C 6.496094 28.828125 6.5 28.789062 6.5 28.75 L 6.5 23.75 C 6.5 23.476562 6.273438 23.25 6 23.25 Z M 6 23.25 "/>
<path style=" stroke:none;fill-rule:nonzero;fill:rgb(54.901961%,34.509804%,16.470588%);fill-opacity:1;" d="M 6 23.25 L 5.5 23.25 C 5.226562 23.25 5 23.476562 5 23.75 L 5 24.25 C 5 23.976562 5.226562 23.75 5.5 23.75 L 6 23.75 C 6.273438 23.75 6.5 23.976562 6.5 24.25 L 6.5 23.75 C 6.5 23.476562 6.273438 23.25 6 23.25 Z M 6 23.25 "/>
<path style=" stroke:none;fill-rule:nonzero;fill:rgb(88.235294%,41.960784%,35.294118%);fill-opacity:1;" d="M 16 28 C 16 28.824219 15.324219 29.5 14.5 29.5 L 8.5 29.5 C 7.675781 29.5 7 28.824219 7 28 L 7 21 C 7 20.175781 7.675781 19.5 8.5 19.5 L 14.5 19.5 C 15.324219 19.5 16 20.175781 16 21 Z M 16 28 "/>
<path style=" stroke:none;fill-rule:nonzero;fill:rgb(80%,38.039216%,32.156863%);fill-opacity:1;" d="M 14.5 19.5 L 8.5 19.5 C 7.675781 19.5 7 20.175781 7 21 L 7 22 C 7 21.175781 7.675781 20.5 8.5 20.5 L 14.5 20.5 C 15.324219 20.5 16 21.175781 16 22 L 16 21 C 16 20.175781 15.324219 19.5 14.5 19.5 Z M 14.5 19.5 "/>
<path style=" stroke:none;fill-rule:nonzero;fill:rgb(70.196078%,70.196078%,70.196078%);fill-opacity:1;" d="M 13 22 L 10 22 C 9.175781 22 8.5 22.675781 8.5 23.5 L 8.5 30.132812 C 10.089844 30.976562 11.835938 31.5625 13.6875 31.832031 C 14.167969 31.582031 14.5 31.078125 14.5 30.5 L 14.5 23.5 C 14.5 22.675781 13.824219 22 13 22 Z M 13 22 "/>
<path style=" stroke:none;fill-rule:nonzero;fill:rgb(13.72549%,20.784314%,25.098039%);fill-opacity:1;" d="M 13 22 L 10 22 C 9.175781 22 8.5 22.675781 8.5 23.5 L 8.5 24.5 C 8.5 23.675781 9.175781 23 10 23 L 13 23 C 13.824219 23 14.5 23.675781 14.5 24.5 L 14.5 23.5 C 14.5 22.675781 13.824219 22 13 22 Z M 13 22 "/>
<path style=" stroke:none;fill-rule:nonzero;fill:rgb(60%,37.647059%,18.039216%);fill-opacity:1;" d="M 8.5 28.75 C 8.5 29.023438 8.273438 29.25 8 29.25 L 7.5 29.25 C 7.226562 29.25 7 29.023438 7 28.75 L 7 23.75 C 7 23.476562 7.226562 23.25 7.5 23.25 L 8 23.25 C 8.273438 23.25 8.5 23.476562 8.5 23.75 Z M 8.5 28.75 "/>
<path style=" stroke:none;fill-rule:nonzero;fill:rgb(54.901961%,34.509804%,16.470588%);fill-opacity:1;" d="M 8 23.25 L 7.5 23.25 C 7.226562 23.25 7 23.476562 7 23.75 L 7 24.25 C 7 23.976562 7.226562 23.75 7.5 23.75 L 8 23.75 C 8.273438 23.75 8.5 23.976562 8.5 24.25 L 8.5 23.75 C 8.5 23.476562 8.273438 23.25 8 23.25 Z M 8 23.25 "/>
<path style=" stroke:none;fill-rule:nonzero;fill:rgb(60%,37.647059%,18.039216%);fill-opacity:1;" d="M 16 28.75 C 16 29.023438 15.773438 29.25 15.5 29.25 L 15 29.25 C 14.726562 29.25 14.5 29.023438 14.5 28.75 L 14.5 23.75 C 14.5 23.476562 14.726562 23.25 15 23.25 L 15.5 23.25 C 15.773438 23.25 16 23.476562 16 23.75 Z M 16 28.75 "/>
<path style=" stroke:none;fill-rule:nonzero;fill:rgb(54.901961%,34.509804%,16.470588%);fill-opacity:1;" d="M 15.5 23.25 L 15 23.25 C 14.726562 23.25 14.5 23.476562 14.5 23.75 L 14.5 24.25 C 14.5 23.976562 14.726562 23.75 15 23.75 L 15.5 23.75 C 15.773438 23.75 16 23.976562 16 24.25 L 16 23.75 C 16 23.476562 15.773438 23.25 15.5 23.25 Z M 15.5 23.25 "/>
<path style=" stroke:none;fill-rule:nonzero;fill:rgb(88.235294%,41.960784%,35.294118%);fill-opacity:1;" d="M 25.5 28 C 25.5 28.824219 24.824219 29.5 24 29.5 L 18 29.5 C 17.175781 29.5 16.5 28.824219 16.5 28 L 16.5 21 C 16.5 20.175781 17.175781 19.5 18 19.5 L 24 19.5 C 24.824219 19.5 25.5 20.175781 25.5 21 Z M 25.5 28 "/>
<path style=" stroke:none;fill-rule:nonzero;fill:rgb(80%,38.039216%,32.156863%);fill-opacity:1;" d="M 24 19.5 L 18 19.5 C 17.175781 19.5 16.5 20.175781 16.5 21 L 16.5 22 C 16.5 21.175781 17.175781 20.5 18 20.5 L 24 20.5 C 24.824219 20.5 25.5 21.175781 25.5 22 L 25.5 21 C 25.5 20.175781 24.824219 19.5 24 19.5 Z M 24 19.5 "/>
<path style=" stroke:none;fill-rule:nonzero;fill:rgb(70.196078%,70.196078%,70.196078%);fill-opacity:1;" d="M 22.5 22 L 19.5 22 C 18.675781 22 18 22.675781 18 23.5 L 18 30.5 C 18 31.03125 18.28125 31.5 18.703125 31.769531 C 20.605469 31.445312 22.390625 30.785156 24 29.855469 L 24 23.5 C 24 22.675781 23.324219 22 22.5 22 Z M 22.5 22 "/>
<path style=" stroke:none;fill-rule:nonzero;fill:rgb(13.72549%,20.784314%,25.098039%);fill-opacity:1;" d="M 22.5 22 L 19.5 22 C 18.675781 22 18 22.675781 18 23.5 L 18 24.5 C 18 23.675781 18.675781 23 19.5 23 L 22.5 23 C 23.324219 23 24 23.675781 24 24.5 L 24 23.5 C 24 22.675781 23.324219 22 22.5 22 Z M 22.5 22 "/>
<path style=" stroke:none;fill-rule:nonzero;fill:rgb(60%,37.647059%,18.039216%);fill-opacity:1;" d="M 18 28.75 C 18 29.023438 17.773438 29.25 17.5 29.25 L 17 29.25 C 16.726562 29.25 16.5 29.023438 16.5 28.75 L 16.5 23.75 C 16.5 23.476562 16.726562 23.25 17 23.25 L 17.5 23.25 C 17.773438 23.25 18 23.476562 18 23.75 Z M 18 28.75 "/>
<path style=" stroke:none;fill-rule:nonzero;fill:rgb(54.901961%,34.509804%,16.470588%);fill-opacity:1;" d="M 17.5 23.25 L 17 23.25 C 16.726562 23.25 16.5 23.476562 16.5 23.75 L 16.5 24.25 C 16.5 23.976562 16.726562 23.75 17 23.75 L 17.5 23.75 C 17.773438 23.75 18 23.976562 18 24.25 L 18 23.75 C 18 23.476562 17.773438 23.25 17.5 23.25 Z M 17.5 23.25 "/>
<path style=" stroke:none;fill-rule:nonzero;fill:rgb(60%,37.647059%,18.039216%);fill-opacity:1;" d="M 25 23.25 L 24.5 23.25 C 24.226562 23.25 24 23.476562 24 23.75 L 24 28.75 C 24 29.023438 24.226562 29.25 24.5 29.25 L 24.96875 29.25 C 25.140625 29.132812 25.308594 29.011719 25.476562 28.890625 C 25.492188 28.84375 25.5 28.796875 25.5 28.75 L 25.5 23.75 C 25.5 23.476562 25.273438 23.25 25 23.25 Z M 25 23.25 "/>
<path style=" stroke:none;fill-rule:nonzero;fill:rgb(54.901961%,34.509804%,16.470588%);fill-opacity:1;" d="M 25 23.25 L 24.5 23.25 C 24.226562 23.25 24 23.476562 24 23.75 L 24 24.25 C 24 23.976562 24.226562 23.75 24.5 23.75 L 25 23.75 C 25.273438 23.75 25.5 23.976562 25.5 24.25 L 25.5 23.75 C 25.5 23.476562 25.273438 23.25 25 23.25 Z M 25 23.25 "/>
<path style=" stroke:none;fill-rule:nonzero;fill:rgb(88.235294%,41.960784%,35.294118%);fill-opacity:1;" d="M 31.609375 19.5 L 27.5 19.5 C 26.675781 19.5 26 20.175781 26 21 L 26 28 C 26 28.152344 26.023438 28.296875 26.066406 28.433594 C 28.816406 26.203125 30.8125 23.078125 31.609375 19.5 Z M 31.609375 19.5 "/>
<path style=" stroke:none;fill-rule:nonzero;fill:rgb(80%,38.039216%,32.156863%);fill-opacity:1;" d="M 27.5 19.5 C 26.675781 19.5 26 20.175781 26 21 L 26 22 C 26 21.175781 26.675781 20.5 27.5 20.5 L 31.355469 20.5 C 31.449219 20.171875 31.535156 19.835938 31.609375 19.5 Z M 27.5 19.5 "/>
<path style=" stroke:none;fill-rule:nonzero;fill:rgb(70.196078%,70.196078%,70.196078%);fill-opacity:1;" d="M 30.832031 22 L 29 22 C 28.175781 22 27.5 22.675781 27.5 23.5 L 27.5 27.117188 C 28.917969 25.652344 30.054688 23.921875 30.832031 22 Z M 30.832031 22 "/>
<path style=" stroke:none;fill-rule:nonzero;fill:rgb(13.72549%,20.784314%,25.098039%);fill-opacity:1;" d="M 29 22 C 28.175781 22 27.5 22.675781 27.5 23.5 L 27.5 24.5 C 27.5 23.675781 28.175781 23 29 23 L 30.390625 23 C 30.550781 22.671875 30.695312 22.339844 30.832031 22 Z M 29 22 "/>
<path style=" stroke:none;fill-rule:nonzero;fill:rgb(60%,37.647059%,18.039216%);fill-opacity:1;" d="M 27.5 27.117188 L 27.5 23.75 C 27.5 23.476562 27.273438 23.25 27 23.25 L 26.5 23.25 C 26.226562 23.25 26 23.476562 26 23.75 L 26 28.484375 C 26.527344 28.0625 27.027344 27.605469 27.5 27.117188 Z M 27.5 27.117188 "/>
<path style=" stroke:none;fill-rule:nonzero;fill:rgb(54.901961%,34.509804%,16.470588%);fill-opacity:1;" d="M 27 23.25 L 26.5 23.25 C 26.226562 23.25 26 23.476562 26 23.75 L 26 24.25 C 26 23.976562 26.226562 23.75 26.5 23.75 L 27 23.75 C 27.273438 23.75 27.5 23.976562 27.5 24.25 L 27.5 23.75 C 27.5 23.476562 27.273438 23.25 27 23.25 Z M 27 23.25 "/>
<path style=" stroke:none;fill-rule:nonzero;fill:rgb(88.235294%,41.960784%,35.294118%);fill-opacity:1;" d="M 10 25.25 L 4 25.25 C 3.683594 25.25 3.386719 25.351562 3.140625 25.523438 C 5.191406 28.285156 8.113281 30.363281 11.5 31.355469 L 11.5 26.75 C 11.5 25.925781 10.824219 25.25 10 25.25 Z M 10 25.25 "/>
<path style=" stroke:none;fill-rule:nonzero;fill:rgb(80%,38.039216%,32.156863%);fill-opacity:1;" d="M 10 25.25 L 4 25.25 C 3.683594 25.25 3.386719 25.351562 3.140625 25.523438 C 3.332031 25.78125 3.53125 26.03125 3.738281 26.273438 C 3.824219 26.257812 3.910156 26.25 4 26.25 L 10 26.25 C 10.824219 26.25 11.5 26.925781 11.5 27.75 L 11.5 26.75 C 11.5 25.925781 10.824219 25.25 10 25.25 Z M 10 25.25 "/>
<path style=" stroke:none;fill-rule:nonzero;fill:rgb(70.196078%,70.196078%,70.196078%);fill-opacity:1;" d="M 8.5 27.75 L 5.5 27.75 C 5.390625 27.75 5.285156 27.761719 5.179688 27.785156 C 6.582031 29.070312 8.210938 30.109375 10 30.832031 L 10 29.25 C 10 28.425781 9.324219 27.75 8.5 27.75 Z M 8.5 27.75 "/>
<path style=" stroke:none;fill-rule:nonzero;fill:rgb(13.72549%,20.784314%,25.098039%);fill-opacity:1;" d="M 8.5 27.75 L 5.5 27.75 C 5.390625 27.75 5.285156 27.761719 5.179688 27.785156 C 5.550781 28.125 5.9375 28.445312 6.335938 28.75 L 8.5 28.75 C 9.324219 28.75 10 29.425781 10 30.25 L 10 29.25 C 10 28.425781 9.324219 27.75 8.5 27.75 Z M 8.5 27.75 "/>
<path style=" stroke:none;fill-rule:nonzero;fill:rgb(60%,37.647059%,18.039216%);fill-opacity:1;" d="M 11 29 L 10.5 29 C 10.226562 29 10 29.226562 10 29.5 L 10 30.832031 C 10.488281 31.03125 10.988281 31.203125 11.5 31.355469 L 11.5 29.5 C 11.5 29.226562 11.273438 29 11 29 Z M 11 29 "/>
<path style=" stroke:none;fill-rule:nonzero;fill:rgb(54.901961%,34.509804%,16.470588%);fill-opacity:1;" d="M 11 29 L 10.5 29 C 10.226562 29 10 29.226562 10 29.5 L 10 30 C 10 29.726562 10.226562 29.5 10.5 29.5 L 11 29.5 C 11.273438 29.5 11.5 29.726562 11.5 30 L 11.5 29.5 C 11.5 29.226562 11.273438 29 11 29 Z M 11 29 "/>
<path style=" stroke:none;fill-rule:nonzero;fill:rgb(88.235294%,41.960784%,35.294118%);fill-opacity:1;" d="M 19.5 25.25 L 13.5 25.25 C 12.675781 25.25 12 25.925781 12 26.75 L 12 31.496094 C 13.277344 31.824219 14.617188 32 16 32 C 17.746094 32 19.425781 31.714844 21 31.199219 L 21 26.75 C 21 25.925781 20.324219 25.25 19.5 25.25 Z M 19.5 25.25 "/>
<path style=" stroke:none;fill-rule:nonzero;fill:rgb(80%,38.039216%,32.156863%);fill-opacity:1;" d="M 19.5 25.25 L 13.5 25.25 C 12.675781 25.25 12 25.925781 12 26.75 L 12 27.75 C 12 26.925781 12.675781 26.25 13.5 26.25 L 19.5 26.25 C 20.324219 26.25 21 26.925781 21 27.75 L 21 26.75 C 21 25.925781 20.324219 25.25 19.5 25.25 Z M 19.5 25.25 "/>
<path style=" stroke:none;fill-rule:nonzero;fill:rgb(70.196078%,70.196078%,70.196078%);fill-opacity:1;" d="M 18 27.75 L 15 27.75 C 14.175781 27.75 13.5 28.425781 13.5 29.25 L 13.5 31.804688 C 14.316406 31.933594 15.148438 32 16 32 C 17.203125 32 18.371094 31.863281 19.5 31.609375 L 19.5 29.25 C 19.5 28.425781 18.824219 27.75 18 27.75 Z M 18 27.75 "/>
<path style=" stroke:none;fill-rule:nonzero;fill:rgb(13.72549%,20.784314%,25.098039%);fill-opacity:1;" d="M 18 27.75 L 15 27.75 C 14.175781 27.75 13.5 28.425781 13.5 29.25 L 13.5 30.25 C 13.5 29.425781 14.175781 28.75 15 28.75 L 18 28.75 C 18.824219 28.75 19.5 29.425781 19.5 30.25 L 19.5 29.25 C 19.5 28.425781 18.824219 27.75 18 27.75 Z M 18 27.75 "/>
<path style=" stroke:none;fill-rule:nonzero;fill:rgb(60%,37.647059%,18.039216%);fill-opacity:1;" d="M 13 29 L 12.5 29 C 12.226562 29 12 29.226562 12 29.5 L 12 31.496094 C 12.492188 31.621094 12.992188 31.722656 13.5 31.804688 L 13.5 29.5 C 13.5 29.226562 13.273438 29 13 29 Z M 13 29 "/>
<path style=" stroke:none;fill-rule:nonzero;fill:rgb(54.901961%,34.509804%,16.470588%);fill-opacity:1;" d="M 13 29 L 12.5 29 C 12.226562 29 12 29.226562 12 29.5 L 12 30 C 12 29.726562 12.226562 29.5 12.5 29.5 L 13 29.5 C 13.273438 29.5 13.5 29.726562 13.5 30 L 13.5 29.5 C 13.5 29.226562 13.273438 29 13 29 Z M 13 29 "/>
<path style=" stroke:none;fill-rule:nonzero;fill:rgb(60%,37.647059%,18.039216%);fill-opacity:1;" d="M 20.5 29 L 20 29 C 19.726562 29 19.5 29.226562 19.5 29.5 L 19.5 31.609375 C 20.007812 31.496094 20.511719 31.359375 21 31.199219 L 21 29.5 C 21 29.226562 20.773438 29 20.5 29 Z M 20.5 29 "/>
<path style=" stroke:none;fill-rule:nonzero;fill:rgb(54.901961%,34.509804%,16.470588%);fill-opacity:1;" d="M 20.5 29 L 20 29 C 19.726562 29 19.5 29.226562 19.5 29.5 L 19.5 30 C 19.5 29.726562 19.726562 29.5 20 29.5 L 20.5 29.5 C 20.773438 29.5 21 29.726562 21 30 L 21 29.5 C 21 29.226562 20.773438 29 20.5 29 Z M 20.5 29 "/>
<path style=" stroke:none;fill-rule:nonzero;fill:rgb(88.235294%,41.960784%,35.294118%);fill-opacity:1;" d="M 29.050781 25.253906 C 29.03125 25.253906 29.015625 25.25 29 25.25 L 23 25.25 C 22.175781 25.25 21.5 25.925781 21.5 26.75 L 21.5 31.03125 C 24.566406 29.90625 27.191406 27.871094 29.050781 25.253906 Z M 29.050781 25.253906 "/>
<path style=" stroke:none;fill-rule:nonzero;fill:rgb(80%,38.039216%,32.156863%);fill-opacity:1;" d="M 29.050781 25.253906 C 29.03125 25.253906 29.015625 25.25 29 25.25 L 23 25.25 C 22.175781 25.25 21.5 25.925781 21.5 26.75 L 21.5 27.75 C 21.5 26.925781 22.175781 26.25 23 26.25 L 28.285156 26.25 C 28.550781 25.929688 28.804688 25.59375 29.050781 25.253906 Z M 29.050781 25.253906 "/>
<path style=" stroke:none;fill-rule:nonzero;fill:rgb(70.196078%,70.196078%,70.196078%);fill-opacity:1;" d="M 26.855469 27.75 L 24.5 27.75 C 23.675781 27.75 23 28.425781 23 29.25 L 23 30.390625 C 24.414062 29.699219 25.710938 28.808594 26.855469 27.75 Z M 26.855469 27.75 "/>
<path style=" stroke:none;fill-rule:nonzero;fill:rgb(13.72549%,20.784314%,25.098039%);fill-opacity:1;" d="M 24.5 27.75 C 23.675781 27.75 23 28.425781 23 29.25 L 23 30.25 C 23 29.425781 23.675781 28.75 24.5 28.75 L 25.664062 28.75 C 26.078125 28.4375 26.476562 28.101562 26.855469 27.75 Z M 24.5 27.75 "/>
<path style=" stroke:none;fill-rule:nonzero;fill:rgb(60%,37.647059%,18.039216%);fill-opacity:1;" d="M 22.5 29 L 22 29 C 21.726562 29 21.5 29.226562 21.5 29.5 L 21.5 31.03125 C 22.011719 30.839844 22.511719 30.628906 23 30.390625 L 23 29.5 C 23 29.226562 22.773438 29 22.5 29 Z M 22.5 29 "/>
<path style=" stroke:none;fill-rule:nonzero;fill:rgb(54.901961%,34.509804%,16.470588%);fill-opacity:1;" d="M 22.5 29 L 22 29 C 21.726562 29 21.5 29.226562 21.5 29.5 L 21.5 30 C 21.5 29.726562 21.726562 29.5 22 29.5 L 22.5 29.5 C 22.773438 29.5 23 29.726562 23 30 L 23 29.5 C 23 29.226562 22.773438 29 22.5 29 Z M 22.5 29 "/>
<path style=" stroke:none;fill-rule:nonzero;fill:rgb(25.098039%,41.568627%,50.196078%);fill-opacity:1;" d="M 16 9.5 C 15.3125 9.5 14.75 8.9375 14.75 8.25 C 14.75 7.5625 15.3125 7 16 7 C 16.6875 7 17.25 7.5625 17.25 8.25 C 17.25 8.9375 16.6875 9.5 16 9.5 Z M 16 9.5 "/>
<path style=" stroke:none;fill-rule:nonzero;fill:rgb(100%,83.137255%,39.215686%);fill-opacity:1;" d="M 16.75 8.25 C 16.75 8.664062 16.414062 9 16 9 C 15.585938 9 15.25 8.664062 15.25 8.25 C 15.25 7.835938 15.585938 7.5 16 7.5 C 16.414062 7.5 16.75 7.835938 16.75 8.25 Z M 16.75 8.25 "/>
<use xlink:href="#surface5" mask="url(#mask0)"/>
<use xlink:href="#surface8" mask="url(#mask1)"/>
<use xlink:href="#surface11" mask="url(#mask2)"/>
</g>
</svg>
